v -3.173919678 75 86.62064362
vn -0.9881432652 0.031030301 -0.1503663808
v -3.173919678 75 62.06836319
vn -0.99300915 0.02542203479 0.1152674109
v -3.173919678 -75 86.62064362
vn -0.9885002375 -0.0155207552 -0.1504207104
v -3.173919678 -75 62.06836319
vn -0.9920479059 -0.05079485103 0.115155831
v -6.02392149 -75 62.06836319
vn -0.8949466944 -0.02414425835 0.4455193281
v -6.02392149 75 62.06836319
vn -0.9922555089 0.01338474918 0.1234903261
v -2.723921061 75 50.61836243
vn 0.9814060926 0.01079546753 -0.1916390508
v -2.723921061 -75 50.61836243
vn 0.787971139 -0.0173353646 -0.6154680848
v -6.02392149 75 50.61836243
vn -0.8658996224 0.03310810775 -0.4991209805
v -6.02392149 -75 50.61836243
vn -0.9895987511 -0.01891890168 -0.142605871
v -2.723921061 -75 59.06820679
vn 0.9840925932 -0.03230695426 -0.1746942103
v -2.723921061 75 59.06820679
vn 0.8141893148 0.05345833674 -0.5781332254
v 0.2760789394 -75 59.06820679
vn 0.9928081632 -0.01260785852 -0.1190505624
v 0.2760789394 75 59.06820679
vn 0.9925715327 0.02520970628 -0.1190221906
v 0.2760803401 -75 84.08636475
vn 0.9788125157 -0.04176062346 -0.2004548907
v 0.2760803401 75 84.08636475
vn 0.9794532657 0.02089398168 -0.2005861253
v -7.380238533 75 89.71048737
vn -0.9963523746 0.02274090424 -0.08224846423
v -7.380238533 -75 89.71048737
vn -0.9132258296 -0.01472836267 0.4071875215
v -0.06965863705 75 88.68315125
vn -0.2454201579 0.05364455655 0.9679313898
v -0.06965863705 -75 88.68315125
vn -0.6696025133 -0.03406250477 0.7419381738
v 4.962453842 75 95.53354645
vn -0.6907485127 0.009847357869 0.7230280042
v 4.962453842 -75 95.53354645
vn -0.3169716299 -0.01633717865 0.948294282
v 7.380238533 -75 93.75750732
vn 0.8730096221 -0.01694897376 -0.4874083698
v 7.380238533 75 93.75750732
vn 0.9851406217 0.03054532968 -0.1690116972
v -2.890407324 -75 90.75519562
vn 0.9969215989 -0.05562426522 0.05525588244
v -2.890407324 75 90.75519562
vn 0.9081863165 0.03532183543 -0.4170731008
v 2.141704559 -75 97.60559082
vn 0.8965047598 -0.009847356938 -0.4429246485
v 2.141704559 75 97.60559082
vn 0.9996881485 0.01633717492 -0.01888793707
v -0.2760800421 -75 99.38162994
vn -0.4558752477 -0.0305453483 0.8895193934
v -0.2760800421 75 99.38162994
vn -0.7261704206 0.01694898494 0.6873058081
# mm_gid 0
g mmGroup0
f 1//1 2//2 3//3 
f 3//3 2//2 4//4 
f 4//4 2//2 5//5 
f 5//5 2//2 6//6 
f 7//7 8//8 9//9 
f 9//9 8//8 10//10 
f 11//11 12//12 13//13 
f 13//13 12//12 14//14 
f 15//15 13//13 16//16 
f 16//16 13//13 14//14 
f 9//9 10//10 6//6 
f 6//6 10//10 5//5 
f 12//12 11//11 7//7 
f 7//7 11//11 8//8 
f 1//1 3//3 17//17 
f 17//17 3//3 18//18 
f 19//19 20//20 21//21 
f 21//21 20//20 22//22 
f 23//23 24//24 22//22 
f 22//22 24//24 21//21 
f 25//25 26//26 27//27 
f 27//27 26//26 28//28 
f 27//27 28//28 29//29 
f 29//29 28//28 30//30 
f 20//20 19//19 25//25 
f 25//25 19//19 26//26 
f 15//15 16//16 23//23 
f 23//23 16//16 24//24 
f 23//23 20//20 15//15 
f 15//15 20//20 3//3 
f 15//15 3//3 4//4 
f 23//23 22//22 20//20 
f 20//20 25//25 3//3 
f 3//3 25//25 18//18 
f 18//18 25//25 29//29 
f 29//29 25//25 27//27 
f 5//5 11//11 4//4 
f 4//4 11//11 13//13 
f 4//4 13//13 15//15 
f 5//5 10//10 11//11 
f 11//11 10//10 8//8 
f 17//17 18//18 30//30 
f 30//30 18//18 29//29 
f 17//17 26//26 1//1 
f 1//1 26//26 19//19 
f 1//1 19//19 16//16 
f 16//16 19//19 24//24 
f 24//24 19//19 21//21 
f 17//17 30//30 26//26 
f 26//26 30//30 28//28 
f 1//1 16//16 2//2 
f 2//2 16//16 14//14 
f 2//2 14//14 12//12 
f 7//7 9//9 12//12 
f 12//12 9//9 6//6 
f 12//12 6//6 2//2 
